<svg id="katman_1" data-name="katman 1" xmlns="http://www.w3.org/2000/svg" viewBox="0 0 506.82 189.74"><defs><style>.cls-1,.cls-2{fill:#000;}.cls-2{fill-rule:evenodd;}</style></defs><path class="cls-1" d="M107.24,392.12h-.33v10.25h-16V322h16.26v31h.34c3.28-7.07,9.91-11.3,18.43-11.3,15,0,24.28,11.53,24.28,30.8S141,403.31,126,403.31C117.21,403.31,110.53,399.08,107.24,392.12Zm-.16-19.6c0,10.8,5.34,17.7,13.25,17.7,8.13,0,13.2-6.79,13.2-17.7s-5.12-17.77-13.2-17.77C112.48,354.75,107.08,361.82,107.08,372.52Z" transform="translate(-56.35 -317.72)"/><path class="cls-1" d="M155.68,326a8.39,8.39,0,1,1,8.41,8.25A8.35,8.35,0,0,1,155.68,326Zm.34,16.66h16.26v59.7H156Z" transform="translate(-56.35 -317.72)"/><path class="cls-1" d="M180.24,342.67h15.7v10.74h.33c2.12-7.57,7.19-11.69,14.2-11.69a16.79,16.79,0,0,1,4.63.61v14.31a17,17,0,0,0-5.91-.94c-8,0-12.69,4.9-12.69,13.31v50.54H180.24Z" transform="translate(-56.35 -317.72)"/><path class="cls-1" d="M275.72,342.67h18.43l-22.78,25.61,23.89,34.09H276.55l-17.1-24.29-4.23,4.57v19.72H239V322h16.26v44.61h.23Z" transform="translate(-56.35 -317.72)"/><path class="cls-1" d="M297,326a8.38,8.38,0,1,1,8.41,8.25A8.34,8.34,0,0,1,297,326Zm.33,16.66h16.26v59.7H297.37Z" transform="translate(-56.35 -317.72)"/><path class="cls-1" d="M342.19,328.91v13.76h11v12.25h-11v28.57c0,4.56,2.23,6.73,7,6.73a27.3,27.3,0,0,0,4-.27v12a37.3,37.3,0,0,1-7.74.67c-14,0-19.49-4.68-19.49-16.32V354.92h-8.41V342.67h8.41V328.91Z" transform="translate(-56.35 -317.72)"/><path class="cls-1" d="M356.44,385.21c0-10.86,8.35-17.15,23.22-18l15-.89v-4c0-5.57-3.9-8.8-10-8.8s-9.91,3-10.69,7.41H359.11c.62-11.58,10.47-19.55,26.29-19.55,15.31,0,25.28,7.91,25.28,19.94v41.05H395v-9.14h-.34c-3.34,6.35-10.74,10.08-18.21,10.08C365.07,403.31,356.44,396,356.44,385.21Zm38.26-4.73v-4.34l-12.59.77c-6.07.45-9.52,3.18-9.52,7.41,0,4.46,3.68,7.24,9.19,7.24C388.85,391.56,394.7,386.94,394.7,380.48Z" transform="translate(-56.35 -317.72)"/><path class="cls-1" d="M477.6,372.52c0,19.21-9.24,30.79-24.17,30.79-8.68,0-15.37-4.23-18.54-11h-.34v29.52H418.29V342.67h16v10.41h.34c3.23-7,9.85-11.36,18.49-11.36C468.3,341.72,477.6,353.25,477.6,372.52Zm-16.65,0c0-10.81-5.12-17.77-13.25-17.77-8,0-13.2,7.07-13.2,17.77s5.23,17.7,13.2,17.7C455.83,390.22,461,383.37,461,372.52Z" transform="translate(-56.35 -317.72)"/><path class="cls-1" d="M196.61,496.26h-.34v10.25h-16V426.15H196.5v31h.33c3.29-7.07,9.91-11.3,18.43-11.3,15,0,24.29,11.53,24.29,30.8s-9.19,30.79-24.23,30.79C206.58,507.45,199.89,503.22,196.61,496.26Zm-.17-19.6c0,10.8,5.35,17.71,13.26,17.71,8.13,0,13.19-6.8,13.19-17.71s-5.12-17.77-13.19-17.77C201.84,458.89,196.44,466,196.44,476.66Z" transform="translate(-56.35 -317.72)"/><path class="cls-1" d="M245.05,430.15a8.38,8.38,0,1,1,8.41,8.25A8.34,8.34,0,0,1,245.05,430.15Zm.33,16.66h16.27v59.7H245.38Z" transform="translate(-56.35 -317.72)"/><path class="cls-1" d="M269.6,446.81h15.7v10.74h.34c2.11-7.57,7.18-11.69,14.2-11.69a16.71,16.71,0,0,1,4.62.61v14.31a16.86,16.86,0,0,0-5.9-.94c-8,0-12.7,4.9-12.7,13.31v33.36H269.6Z" transform="translate(-56.35 -317.72)"/><path class="cls-1" d="M336.28,459.06h-8.13v-12h8.13v-4.51c0-11.69,5.51-17.15,19.65-17.15a47.2,47.2,0,0,1,8.3.73v10.74a25.56,25.56,0,0,0-4.4-.33c-5.34,0-7.68,2.34-7.68,6.57v3.95H364v12H352.54v47.45H336.28Z" transform="translate(-56.35 -317.72)"/><path class="cls-1" d="M369.63,430.15a8.38,8.38,0,1,1,8.4,8.25A8.34,8.34,0,0,1,369.63,430.15Zm.33,16.66h16.26v59.7H370Z" transform="translate(-56.35 -317.72)"/><path class="cls-1" d="M394.57,409h16.26v97.55H394.57Z" transform="translate(-56.35 -317.72)"/><path class="cls-1" d="M419,446.81h15.7v10.8H435a17.53,17.53,0,0,1,17-11.92c8.63,0,14.65,4.46,16.65,12.25H469c2.68-7.51,9.81-12.25,18.55-12.25,11.69,0,19.55,8,19.55,20.05v40.77H490.85v-36.7c0-6.91-3.46-10.7-9.75-10.7s-10.25,4.51-10.25,11.14v36.26H455.2v-37.2c0-6.41-3.62-10.2-9.63-10.2-6.18,0-10.36,4.68-10.36,11.36v36H419Z" transform="translate(-56.35 -317.72)"/><path class="cls-2" d="M162.3,482.71h-103v12.83h103Zm-87,8.71H70.52v-4.78H75.3Zm-12.59,1.2v-7.17l5.2,3.58Zm18.7-.25H78.48v-6.66h2.93Zm4.8,0H83.27v-6.66h2.94ZM110,490.5a3.67,3.67,0,0,1-6.72,0H92.39v-2.93h10.86a3.67,3.67,0,0,1,6.72,0H158.8v2.93Zm-53.62-9.26V418.45A1.47,1.47,0,0,1,57.83,417h106a1.46,1.46,0,0,1,1.46,1.46v62.79h0V497a1.46,1.46,0,0,1-1.46,1.47H57.83A1.47,1.47,0,0,1,56.35,497Zm47.37-18.56a.81.81,0,0,1-.8-.8V437a.8.8,0,0,1,1.2-.7l21.58,12.47a.8.8,0,0,1,0,1.38l-21.58,12.46a.8.8,0,0,1-.4.11Z" transform="translate(-56.35 -317.72)"/><path class="cls-1" d="M561.94,354.82l-54.77-17.88a1.81,1.81,0,0,0-1.52.2l-13.57,8.72a1.79,1.79,0,0,0-.83,1.51v76.56a1.79,1.79,0,0,0,1.24,1.7l54.76,17.88a1.77,1.77,0,0,0,.56.08,1.73,1.73,0,0,0,1-.34,1.75,1.75,0,0,0,.74-1.44v-3.2l7.74-5,3.5,1.14a1.79,1.79,0,0,0,2.34-1.7V356.52A1.8,1.8,0,0,0,561.94,354.82Zm-3.72,40.42-.64,37.63-8.09,5.19,1.2-74.8-53.41-17.4,8.54-5.48,53,17.85Z" transform="translate(-56.35 -317.72)"/></svg>